<!DOCTYPE svg PUBLIC "-//W3C//DTD SVG 1.1//EN" "http://www.w3.org/Graphics/SVG/1.1/DTD/svg11.dtd">
<svg xmlns="http://www.w3.org/2000/svg" xmlns:xlink="http://www.w3.org/1999/xlink" xmlns:jfreesvg="http://www.jfree.org/jfreesvg/svg" width="800px" height="600px" text-rendering="auto" shape-rendering="auto">
<defs><clipPath id="8997427367319744clip-0"><path d="M 0 0 L 800 0 L 800 600 L 0 600 L 0 0 Z "/></clipPath>
<clipPath id="8997427367319744clip-1"><path d="M 53 29 L 53 530 L 792 530 L 792 29 Z "/></clipPath>
</defs>
<rect x="0" y="0" width="800" height="600" style="fill: rgb(255,255,255); fill-opacity: 1.0" transform="matrix(1,0,0,1,0,0)" clip-path="url(#8997427367319744clip-0)"/><g transform="matrix(1,0,0,1,0,0)"><text x="197.2" y="19.1" style="fill: rgb(0,0,0); fill-opacity: 1.0; font-family: sans-serif; font-size: 18px; font-weight: bold;" clip-path="url(#8997427367319744clip-0)">Multiple Eval vs. Single Compile + Multiple Eval</text></g><rect x="295.14" y="577.91" width="209.72" height="21.09" style="fill: rgb(255,255,255); fill-opacity: 1.0" transform="matrix(1,0,0,1,0,0)" clip-path="url(#8997427367319744clip-0)"/><g style="stroke-width: 3.0;stroke: rgb(230,69,69);stroke-opacity: 0.8;stroke-linecap: square;shape-rendering:geometricPrecision;; fill: none" transform="matrix(1,0,0,1,0,0)" clip-path="url(#8997427367319744clip-0)"><path d="M 298.14 588.45 L 312.14 588.45"/></g><g transform="matrix(1,0,0,1,0,0)"><text x="316.14" y="592.97" style="fill: rgb(0,0,0); fill-opacity: 1.0; font-family: sans-serif; font-size: 12px;" clip-path="url(#8997427367319744clip-0)">Multi Eval</text></g><g style="stroke-width: 3.0;stroke: rgb(69,230,69);stroke-opacity: 0.8;stroke-linecap: square;shape-rendering:geometricPrecision;; fill: none" transform="matrix(1,0,0,1,0,0)" clip-path="url(#8997427367319744clip-0)"><path d="M 374.15 588.45 L 388.15 588.45"/></g><g transform="matrix(1,0,0,1,0,0)"><text x="392.15" y="592.97" style="fill: rgb(0,0,0); fill-opacity: 1.0; font-family: sans-serif; font-size: 12px;" clip-path="url(#8997427367319744clip-0)">Compile + Multi Eval</text></g><rect x="53" y="29" width="739" height="501" style="fill: rgb(255,255,255); fill-opacity: 1.0" transform="matrix(1,0,0,1,0,0)" clip-path="url(#8997427367319744clip-0)"/><line x1="53" y1="530" x2="792" y2="530" style="stroke-width: 0.5;stroke: rgb(128,128,128);stroke-opacity: 1.0;stroke-linecap: square;shape-rendering:crispEdges;" transform="matrix(1,0,0,1,0,0)" clip-path="url(#8997427367319744clip-0)"/><g transform="matrix(1,0,0,1,0,0)"><text x="49.66" y="546.06" style="fill: rgb(51,51,51); fill-opacity: 1.0; font-family: sans-serif; font-size: 12px;" clip-path="url(#8997427367319744clip-0)">0</text></g><line x1="53" y1="532" x2="53" y2="530" style="stroke-width: 0.5;stroke: rgb(128,128,128);stroke-opacity: 1.0;stroke-linecap: square;shape-rendering:crispEdges;" transform="matrix(1,0,0,1,0,0)" clip-path="url(#8997427367319744clip-0)"/><g transform="matrix(1,0,0,1,0,0)"><text x="84.85" y="546.06" style="fill: rgb(51,51,51); fill-opacity: 1.0; font-family: sans-serif; font-size: 12px;" clip-path="url(#8997427367319744clip-0)">5</text></g><line x1="88.19" y1="532" x2="88.19" y2="530" style="stroke-width: 0.5;stroke: rgb(128,128,128);stroke-opacity: 1.0;stroke-linecap: square;shape-rendering:crispEdges;" transform="matrix(1,0,0,1,0,0)" clip-path="url(#8997427367319744clip-0)"/><g transform="matrix(1,0,0,1,0,0)"><text x="116.71" y="546.06" style="fill: rgb(51,51,51); fill-opacity: 1.0; font-family: sans-serif; font-size: 12px;" clip-path="url(#8997427367319744clip-0)">10</text></g><line x1="123.38" y1="532" x2="123.38" y2="530" style="stroke-width: 0.5;stroke: rgb(128,128,128);stroke-opacity: 1.0;stroke-linecap: square;shape-rendering:crispEdges;" transform="matrix(1,0,0,1,0,0)" clip-path="url(#8997427367319744clip-0)"/><g transform="matrix(1,0,0,1,0,0)"><text x="151.9" y="546.06" style="fill: rgb(51,51,51); fill-opacity: 1.0; font-family: sans-serif; font-size: 12px;" clip-path="url(#8997427367319744clip-0)">15</text></g><line x1="158.57" y1="532" x2="158.57" y2="530" style="stroke-width: 0.5;stroke: rgb(128,128,128);stroke-opacity: 1.0;stroke-linecap: square;shape-rendering:crispEdges;" transform="matrix(1,0,0,1,0,0)" clip-path="url(#8997427367319744clip-0)"/><g transform="matrix(1,0,0,1,0,0)"><text x="187.09" y="546.06" style="fill: rgb(51,51,51); fill-opacity: 1.0; font-family: sans-serif; font-size: 12px;" clip-path="url(#8997427367319744clip-0)">20</text></g><line x1="193.76" y1="532" x2="193.76" y2="530" style="stroke-width: 0.5;stroke: rgb(128,128,128);stroke-opacity: 1.0;stroke-linecap: square;shape-rendering:crispEdges;" transform="matrix(1,0,0,1,0,0)" clip-path="url(#8997427367319744clip-0)"/><g transform="matrix(1,0,0,1,0,0)"><text x="222.28" y="546.06" style="fill: rgb(51,51,51); fill-opacity: 1.0; font-family: sans-serif; font-size: 12px;" clip-path="url(#8997427367319744clip-0)">25</text></g><line x1="228.95" y1="532" x2="228.95" y2="530" style="stroke-width: 0.5;stroke: rgb(128,128,128);stroke-opacity: 1.0;stroke-linecap: square;shape-rendering:crispEdges;" transform="matrix(1,0,0,1,0,0)" clip-path="url(#8997427367319744clip-0)"/><g transform="matrix(1,0,0,1,0,0)"><text x="257.47" y="546.06" style="fill: rgb(51,51,51); fill-opacity: 1.0; font-family: sans-serif; font-size: 12px;" clip-path="url(#8997427367319744clip-0)">30</text></g><line x1="264.14" y1="532" x2="264.14" y2="530" style="stroke-width: 0.5;stroke: rgb(128,128,128);stroke-opacity: 1.0;stroke-linecap: square;shape-rendering:crispEdges;" transform="matrix(1,0,0,1,0,0)" clip-path="url(#8997427367319744clip-0)"/><g transform="matrix(1,0,0,1,0,0)"><text x="292.66" y="546.06" style="fill: rgb(51,51,51); fill-opacity: 1.0; font-family: sans-serif; font-size: 12px;" clip-path="url(#8997427367319744clip-0)">35</text></g><line x1="299.33" y1="532" x2="299.33" y2="530" style="stroke-width: 0.5;stroke: rgb(128,128,128);stroke-opacity: 1.0;stroke-linecap: square;shape-rendering:crispEdges;" transform="matrix(1,0,0,1,0,0)" clip-path="url(#8997427367319744clip-0)"/><g transform="matrix(1,0,0,1,0,0)"><text x="327.85" y="546.06" style="fill: rgb(51,51,51); fill-opacity: 1.0; font-family: sans-serif; font-size: 12px;" clip-path="url(#8997427367319744clip-0)">40</text></g><line x1="334.52" y1="532" x2="334.52" y2="530" style="stroke-width: 0.5;stroke: rgb(128,128,128);stroke-opacity: 1.0;stroke-linecap: square;shape-rendering:crispEdges;" transform="matrix(1,0,0,1,0,0)" clip-path="url(#8997427367319744clip-0)"/><g transform="matrix(1,0,0,1,0,0)"><text x="363.04" y="546.06" style="fill: rgb(51,51,51); fill-opacity: 1.0; font-family: sans-serif; font-size: 12px;" clip-path="url(#8997427367319744clip-0)">45</text></g><line x1="369.71" y1="532" x2="369.71" y2="530" style="stroke-width: 0.5;stroke: rgb(128,128,128);stroke-opacity: 1.0;stroke-linecap: square;shape-rendering:crispEdges;" transform="matrix(1,0,0,1,0,0)" clip-path="url(#8997427367319744clip-0)"/><g transform="matrix(1,0,0,1,0,0)"><text x="398.23" y="546.06" style="fill: rgb(51,51,51); fill-opacity: 1.0; font-family: sans-serif; font-size: 12px;" clip-path="url(#8997427367319744clip-0)">50</text></g><line x1="404.9" y1="532" x2="404.9" y2="530" style="stroke-width: 0.5;stroke: rgb(128,128,128);stroke-opacity: 1.0;stroke-linecap: square;shape-rendering:crispEdges;" transform="matrix(1,0,0,1,0,0)" clip-path="url(#8997427367319744clip-0)"/><g transform="matrix(1,0,0,1,0,0)"><text x="433.42" y="546.06" style="fill: rgb(51,51,51); fill-opacity: 1.0; font-family: sans-serif; font-size: 12px;" clip-path="url(#8997427367319744clip-0)">55</text></g><line x1="440.1" y1="532" x2="440.1" y2="530" style="stroke-width: 0.5;stroke: rgb(128,128,128);stroke-opacity: 1.0;stroke-linecap: square;shape-rendering:crispEdges;" transform="matrix(1,0,0,1,0,0)" clip-path="url(#8997427367319744clip-0)"/><g transform="matrix(1,0,0,1,0,0)"><text x="468.61" y="546.06" style="fill: rgb(51,51,51); fill-opacity: 1.0; font-family: sans-serif; font-size: 12px;" clip-path="url(#8997427367319744clip-0)">60</text></g><line x1="475.29" y1="532" x2="475.29" y2="530" style="stroke-width: 0.5;stroke: rgb(128,128,128);stroke-opacity: 1.0;stroke-linecap: square;shape-rendering:crispEdges;" transform="matrix(1,0,0,1,0,0)" clip-path="url(#8997427367319744clip-0)"/><g transform="matrix(1,0,0,1,0,0)"><text x="503.8" y="546.06" style="fill: rgb(51,51,51); fill-opacity: 1.0; font-family: sans-serif; font-size: 12px;" clip-path="url(#8997427367319744clip-0)">65</text></g><line x1="510.48" y1="532" x2="510.48" y2="530" style="stroke-width: 0.5;stroke: rgb(128,128,128);stroke-opacity: 1.0;stroke-linecap: square;shape-rendering:crispEdges;" transform="matrix(1,0,0,1,0,0)" clip-path="url(#8997427367319744clip-0)"/><g transform="matrix(1,0,0,1,0,0)"><text x="538.99" y="546.06" style="fill: rgb(51,51,51); fill-opacity: 1.0; font-family: sans-serif; font-size: 12px;" clip-path="url(#8997427367319744clip-0)">70</text></g><line x1="545.67" y1="532" x2="545.67" y2="530" style="stroke-width: 0.5;stroke: rgb(128,128,128);stroke-opacity: 1.0;stroke-linecap: square;shape-rendering:crispEdges;" transform="matrix(1,0,0,1,0,0)" clip-path="url(#8997427367319744clip-0)"/><g transform="matrix(1,0,0,1,0,0)"><text x="574.18" y="546.06" style="fill: rgb(51,51,51); fill-opacity: 1.0; font-family: sans-serif; font-size: 12px;" clip-path="url(#8997427367319744clip-0)">75</text></g><line x1="580.86" y1="532" x2="580.86" y2="530" style="stroke-width: 0.5;stroke: rgb(128,128,128);stroke-opacity: 1.0;stroke-linecap: square;shape-rendering:crispEdges;" transform="matrix(1,0,0,1,0,0)" clip-path="url(#8997427367319744clip-0)"/><g transform="matrix(1,0,0,1,0,0)"><text x="609.37" y="546.06" style="fill: rgb(51,51,51); fill-opacity: 1.0; font-family: sans-serif; font-size: 12px;" clip-path="url(#8997427367319744clip-0)">80</text></g><line x1="616.05" y1="532" x2="616.05" y2="530" style="stroke-width: 0.5;stroke: rgb(128,128,128);stroke-opacity: 1.0;stroke-linecap: square;shape-rendering:crispEdges;" transform="matrix(1,0,0,1,0,0)" clip-path="url(#8997427367319744clip-0)"/><g transform="matrix(1,0,0,1,0,0)"><text x="644.56" y="546.06" style="fill: rgb(51,51,51); fill-opacity: 1.0; font-family: sans-serif; font-size: 12px;" clip-path="url(#8997427367319744clip-0)">85</text></g><line x1="651.24" y1="532" x2="651.24" y2="530" style="stroke-width: 0.5;stroke: rgb(128,128,128);stroke-opacity: 1.0;stroke-linecap: square;shape-rendering:crispEdges;" transform="matrix(1,0,0,1,0,0)" clip-path="url(#8997427367319744clip-0)"/><g transform="matrix(1,0,0,1,0,0)"><text x="679.75" y="546.06" style="fill: rgb(51,51,51); fill-opacity: 1.0; font-family: sans-serif; font-size: 12px;" clip-path="url(#8997427367319744clip-0)">90</text></g><line x1="686.43" y1="532" x2="686.43" y2="530" style="stroke-width: 0.5;stroke: rgb(128,128,128);stroke-opacity: 1.0;stroke-linecap: square;shape-rendering:crispEdges;" transform="matrix(1,0,0,1,0,0)" clip-path="url(#8997427367319744clip-0)"/><g transform="matrix(1,0,0,1,0,0)"><text x="714.95" y="546.06" style="fill: rgb(51,51,51); fill-opacity: 1.0; font-family: sans-serif; font-size: 12px;" clip-path="url(#8997427367319744clip-0)">95</text></g><line x1="721.62" y1="532" x2="721.62" y2="530" style="stroke-width: 0.5;stroke: rgb(128,128,128);stroke-opacity: 1.0;stroke-linecap: square;shape-rendering:crispEdges;" transform="matrix(1,0,0,1,0,0)" clip-path="url(#8997427367319744clip-0)"/><g transform="matrix(1,0,0,1,0,0)"><text x="746.8" y="546.06" style="fill: rgb(51,51,51); fill-opacity: 1.0; font-family: sans-serif; font-size: 12px;" clip-path="url(#8997427367319744clip-0)">100</text></g><line x1="756.81" y1="532" x2="756.81" y2="530" style="stroke-width: 0.5;stroke: rgb(128,128,128);stroke-opacity: 1.0;stroke-linecap: square;shape-rendering:crispEdges;" transform="matrix(1,0,0,1,0,0)" clip-path="url(#8997427367319744clip-0)"/><g transform="matrix(1,0,0,1,0,0)"><text x="781.99" y="546.06" style="fill: rgb(51,51,51); fill-opacity: 1.0; font-family: sans-serif; font-size: 12px;" clip-path="url(#8997427367319744clip-0)">105</text></g><line x1="792" y1="532" x2="792" y2="530" style="stroke-width: 0.5;stroke: rgb(128,128,128);stroke-opacity: 1.0;stroke-linecap: square;shape-rendering:crispEdges;" transform="matrix(1,0,0,1,0,0)" clip-path="url(#8997427367319744clip-0)"/><g transform="matrix(1,0,0,1,0,0)"><text x="418.22" y="566.17" style="fill: rgb(51,51,51); fill-opacity: 1.0; font-family: sans-serif; font-size: 14px; font-weight: bold;" clip-path="url(#8997427367319744clip-0)">n</text></g><line x1="53" y1="29" x2="53" y2="530" style="stroke-width: 0.5;stroke: rgb(128,128,128);stroke-opacity: 1.0;stroke-linecap: square;shape-rendering:crispEdges;" transform="matrix(1,0,0,1,0,0)" clip-path="url(#8997427367319744clip-0)"/><g transform="matrix(1,0,0,1,0,0)"><text x="40.33" y="534.52" style="fill: rgb(51,51,51); fill-opacity: 1.0; font-family: sans-serif; font-size: 12px;" clip-path="url(#8997427367319744clip-0)">0</text></g><line x1="51" y1="530" x2="53" y2="530" style="stroke-width: 0.5;stroke: rgb(128,128,128);stroke-opacity: 1.0;stroke-linecap: square;shape-rendering:crispEdges;" transform="matrix(1,0,0,1,0,0)" clip-path="url(#8997427367319744clip-0)"/><g transform="matrix(1,0,0,1,0,0)"><text x="16.97" y="495.97" style="fill: rgb(51,51,51); fill-opacity: 1.0; font-family: sans-serif; font-size: 12px;" clip-path="url(#8997427367319744clip-0)">5,000</text></g><line x1="51" y1="491.46" x2="53" y2="491.46" style="stroke-width: 0.5;stroke: rgb(128,128,128);stroke-opacity: 1.0;stroke-linecap: square;shape-rendering:crispEdges;" transform="matrix(1,0,0,1,0,0)" clip-path="url(#8997427367319744clip-0)"/><g transform="matrix(1,0,0,1,0,0)"><text x="10.3" y="457.43" style="fill: rgb(51,51,51); fill-opacity: 1.0; font-family: sans-serif; font-size: 12px;" clip-path="url(#8997427367319744clip-0)">10,000</text></g><line x1="51" y1="452.91" x2="53" y2="452.91" style="stroke-width: 0.5;stroke: rgb(128,128,128);stroke-opacity: 1.0;stroke-linecap: square;shape-rendering:crispEdges;" transform="matrix(1,0,0,1,0,0)" clip-path="url(#8997427367319744clip-0)"/><g transform="matrix(1,0,0,1,0,0)"><text x="10.3" y="418.89" style="fill: rgb(51,51,51); fill-opacity: 1.0; font-family: sans-serif; font-size: 12px;" clip-path="url(#8997427367319744clip-0)">15,000</text></g><line x1="51" y1="414.37" x2="53" y2="414.37" style="stroke-width: 0.5;stroke: rgb(128,128,128);stroke-opacity: 1.0;stroke-linecap: square;shape-rendering:crispEdges;" transform="matrix(1,0,0,1,0,0)" clip-path="url(#8997427367319744clip-0)"/><g transform="matrix(1,0,0,1,0,0)"><text x="10.3" y="380.34" style="fill: rgb(51,51,51); fill-opacity: 1.0; font-family: sans-serif; font-size: 12px;" clip-path="url(#8997427367319744clip-0)">20,000</text></g><line x1="51" y1="375.83" x2="53" y2="375.83" style="stroke-width: 0.5;stroke: rgb(128,128,128);stroke-opacity: 1.0;stroke-linecap: square;shape-rendering:crispEdges;" transform="matrix(1,0,0,1,0,0)" clip-path="url(#8997427367319744clip-0)"/><g transform="matrix(1,0,0,1,0,0)"><text x="10.3" y="341.8" style="fill: rgb(51,51,51); fill-opacity: 1.0; font-family: sans-serif; font-size: 12px;" clip-path="url(#8997427367319744clip-0)">25,000</text></g><line x1="51" y1="337.28" x2="53" y2="337.28" style="stroke-width: 0.5;stroke: rgb(128,128,128);stroke-opacity: 1.0;stroke-linecap: square;shape-rendering:crispEdges;" transform="matrix(1,0,0,1,0,0)" clip-path="url(#8997427367319744clip-0)"/><g transform="matrix(1,0,0,1,0,0)"><text x="10.3" y="303.26" style="fill: rgb(51,51,51); fill-opacity: 1.0; font-family: sans-serif; font-size: 12px;" clip-path="url(#8997427367319744clip-0)">30,000</text></g><line x1="51" y1="298.74" x2="53" y2="298.74" style="stroke-width: 0.5;stroke: rgb(128,128,128);stroke-opacity: 1.0;stroke-linecap: square;shape-rendering:crispEdges;" transform="matrix(1,0,0,1,0,0)" clip-path="url(#8997427367319744clip-0)"/><g transform="matrix(1,0,0,1,0,0)"><text x="10.3" y="264.71" style="fill: rgb(51,51,51); fill-opacity: 1.0; font-family: sans-serif; font-size: 12px;" clip-path="url(#8997427367319744clip-0)">35,000</text></g><line x1="51" y1="260.2" x2="53" y2="260.2" style="stroke-width: 0.5;stroke: rgb(128,128,128);stroke-opacity: 1.0;stroke-linecap: square;shape-rendering:crispEdges;" transform="matrix(1,0,0,1,0,0)" clip-path="url(#8997427367319744clip-0)"/><g transform="matrix(1,0,0,1,0,0)"><text x="10.3" y="226.17" style="fill: rgb(51,51,51); fill-opacity: 1.0; font-family: sans-serif; font-size: 12px;" clip-path="url(#8997427367319744clip-0)">40,000</text></g><line x1="51" y1="221.65" x2="53" y2="221.65" style="stroke-width: 0.5;stroke: rgb(128,128,128);stroke-opacity: 1.0;stroke-linecap: square;shape-rendering:crispEdges;" transform="matrix(1,0,0,1,0,0)" clip-path="url(#8997427367319744clip-0)"/><g transform="matrix(1,0,0,1,0,0)"><text x="10.3" y="187.63" style="fill: rgb(51,51,51); fill-opacity: 1.0; font-family: sans-serif; font-size: 12px;" clip-path="url(#8997427367319744clip-0)">45,000</text></g><line x1="51" y1="183.11" x2="53" y2="183.11" style="stroke-width: 0.5;stroke: rgb(128,128,128);stroke-opacity: 1.0;stroke-linecap: square;shape-rendering:crispEdges;" transform="matrix(1,0,0,1,0,0)" clip-path="url(#8997427367319744clip-0)"/><g transform="matrix(1,0,0,1,0,0)"><text x="10.3" y="149.08" style="fill: rgb(51,51,51); fill-opacity: 1.0; font-family: sans-serif; font-size: 12px;" clip-path="url(#8997427367319744clip-0)">50,000</text></g><line x1="51" y1="144.56" x2="53" y2="144.56" style="stroke-width: 0.5;stroke: rgb(128,128,128);stroke-opacity: 1.0;stroke-linecap: square;shape-rendering:crispEdges;" transform="matrix(1,0,0,1,0,0)" clip-path="url(#8997427367319744clip-0)"/><g transform="matrix(1,0,0,1,0,0)"><text x="10.3" y="110.54" style="fill: rgb(51,51,51); fill-opacity: 1.0; font-family: sans-serif; font-size: 12px;" clip-path="url(#8997427367319744clip-0)">55,000</text></g><line x1="51" y1="106.02" x2="53" y2="106.02" style="stroke-width: 0.5;stroke: rgb(128,128,128);stroke-opacity: 1.0;stroke-linecap: square;shape-rendering:crispEdges;" transform="matrix(1,0,0,1,0,0)" clip-path="url(#8997427367319744clip-0)"/><g transform="matrix(1,0,0,1,0,0)"><text x="10.3" y="72" style="fill: rgb(51,51,51); fill-opacity: 1.0; font-family: sans-serif; font-size: 12px;" clip-path="url(#8997427367319744clip-0)">60,000</text></g><line x1="51" y1="67.48" x2="53" y2="67.48" style="stroke-width: 0.5;stroke: rgb(128,128,128);stroke-opacity: 1.0;stroke-linecap: square;shape-rendering:crispEdges;" transform="matrix(1,0,0,1,0,0)" clip-path="url(#8997427367319744clip-0)"/><line x1="53" y1="29" x2="53" y2="530" style="stroke-width: 0.5;stroke: rgb(204,204,204);stroke-opacity: 1.0;stroke-linejoin: bevel;stroke-dasharray: 2.0, 2.0;shape-rendering:crispEdges;" transform="matrix(1,0,0,1,0,0)" clip-path="url(#8997427367319744clip-1)"/><line x1="88.19" y1="29" x2="88.19" y2="530" style="stroke-width: 0.5;stroke: rgb(204,204,204);stroke-opacity: 1.0;stroke-linejoin: bevel;stroke-dasharray: 2.0, 2.0;shape-rendering:crispEdges;" transform="matrix(1,0,0,1,0,0)" clip-path="url(#8997427367319744clip-1)"/><line x1="123.38" y1="29" x2="123.38" y2="530" style="stroke-width: 0.5;stroke: rgb(204,204,204);stroke-opacity: 1.0;stroke-linejoin: bevel;stroke-dasharray: 2.0, 2.0;shape-rendering:crispEdges;" transform="matrix(1,0,0,1,0,0)" clip-path="url(#8997427367319744clip-1)"/><line x1="158.57" y1="29" x2="158.57" y2="530" style="stroke-width: 0.5;stroke: rgb(204,204,204);stroke-opacity: 1.0;stroke-linejoin: bevel;stroke-dasharray: 2.0, 2.0;shape-rendering:crispEdges;" transform="matrix(1,0,0,1,0,0)" clip-path="url(#8997427367319744clip-1)"/><line x1="193.76" y1="29" x2="193.76" y2="530" style="stroke-width: 0.5;stroke: rgb(204,204,204);stroke-opacity: 1.0;stroke-linejoin: bevel;stroke-dasharray: 2.0, 2.0;shape-rendering:crispEdges;" transform="matrix(1,0,0,1,0,0)" clip-path="url(#8997427367319744clip-1)"/><line x1="228.95" y1="29" x2="228.95" y2="530" style="stroke-width: 0.5;stroke: rgb(204,204,204);stroke-opacity: 1.0;stroke-linejoin: bevel;stroke-dasharray: 2.0, 2.0;shape-rendering:crispEdges;" transform="matrix(1,0,0,1,0,0)" clip-path="url(#8997427367319744clip-1)"/><line x1="264.14" y1="29" x2="264.14" y2="530" style="stroke-width: 0.5;stroke: rgb(204,204,204);stroke-opacity: 1.0;stroke-linejoin: bevel;stroke-dasharray: 2.0, 2.0;shape-rendering:crispEdges;" transform="matrix(1,0,0,1,0,0)" clip-path="url(#8997427367319744clip-1)"/><line x1="299.33" y1="29" x2="299.33" y2="530" style="stroke-width: 0.5;stroke: rgb(204,204,204);stroke-opacity: 1.0;stroke-linejoin: bevel;stroke-dasharray: 2.0, 2.0;shape-rendering:crispEdges;" transform="matrix(1,0,0,1,0,0)" clip-path="url(#8997427367319744clip-1)"/><line x1="334.52" y1="29" x2="334.52" y2="530" style="stroke-width: 0.5;stroke: rgb(204,204,204);stroke-opacity: 1.0;stroke-linejoin: bevel;stroke-dasharray: 2.0, 2.0;shape-rendering:crispEdges;" transform="matrix(1,0,0,1,0,0)" clip-path="url(#8997427367319744clip-1)"/><line x1="369.71" y1="29" x2="369.71" y2="530" style="stroke-width: 0.5;stroke: rgb(204,204,204);stroke-opacity: 1.0;stroke-linejoin: bevel;stroke-dasharray: 2.0, 2.0;shape-rendering:crispEdges;" transform="matrix(1,0,0,1,0,0)" clip-path="url(#8997427367319744clip-1)"/><line x1="404.9" y1="29" x2="404.9" y2="530" style="stroke-width: 0.5;stroke: rgb(204,204,204);stroke-opacity: 1.0;stroke-linejoin: bevel;stroke-dasharray: 2.0, 2.0;shape-rendering:crispEdges;" transform="matrix(1,0,0,1,0,0)" clip-path="url(#8997427367319744clip-1)"/><line x1="440.1" y1="29" x2="440.1" y2="530" style="stroke-width: 0.5;stroke: rgb(204,204,204);stroke-opacity: 1.0;stroke-linejoin: bevel;stroke-dasharray: 2.0, 2.0;shape-rendering:crispEdges;" transform="matrix(1,0,0,1,0,0)" clip-path="url(#8997427367319744clip-1)"/><line x1="475.29" y1="29" x2="475.29" y2="530" style="stroke-width: 0.5;stroke: rgb(204,204,204);stroke-opacity: 1.0;stroke-linejoin: bevel;stroke-dasharray: 2.0, 2.0;shape-rendering:crispEdges;" transform="matrix(1,0,0,1,0,0)" clip-path="url(#8997427367319744clip-1)"/><line x1="510.48" y1="29" x2="510.48" y2="530" style="stroke-width: 0.5;stroke: rgb(204,204,204);stroke-opacity: 1.0;stroke-linejoin: bevel;stroke-dasharray: 2.0, 2.0;shape-rendering:crispEdges;" transform="matrix(1,0,0,1,0,0)" clip-path="url(#8997427367319744clip-1)"/><line x1="545.67" y1="29" x2="545.67" y2="530" style="stroke-width: 0.5;stroke: rgb(204,204,204);stroke-opacity: 1.0;stroke-linejoin: bevel;stroke-dasharray: 2.0, 2.0;shape-rendering:crispEdges;" transform="matrix(1,0,0,1,0,0)" clip-path="url(#8997427367319744clip-1)"/><line x1="580.86" y1="29" x2="580.86" y2="530" style="stroke-width: 0.5;stroke: rgb(204,204,204);stroke-opacity: 1.0;stroke-linejoin: bevel;stroke-dasharray: 2.0, 2.0;shape-rendering:crispEdges;" transform="matrix(1,0,0,1,0,0)" clip-path="url(#8997427367319744clip-1)"/><line x1="616.05" y1="29" x2="616.05" y2="530" style="stroke-width: 0.5;stroke: rgb(204,204,204);stroke-opacity: 1.0;stroke-linejoin: bevel;stroke-dasharray: 2.0, 2.0;shape-rendering:crispEdges;" transform="matrix(1,0,0,1,0,0)" clip-path="url(#8997427367319744clip-1)"/><line x1="651.24" y1="29" x2="651.24" y2="530" style="stroke-width: 0.5;stroke: rgb(204,204,204);stroke-opacity: 1.0;stroke-linejoin: bevel;stroke-dasharray: 2.0, 2.0;shape-rendering:crispEdges;" transform="matrix(1,0,0,1,0,0)" clip-path="url(#8997427367319744clip-1)"/><line x1="686.43" y1="29" x2="686.43" y2="530" style="stroke-width: 0.5;stroke: rgb(204,204,204);stroke-opacity: 1.0;stroke-linejoin: bevel;stroke-dasharray: 2.0, 2.0;shape-rendering:crispEdges;" transform="matrix(1,0,0,1,0,0)" clip-path="url(#8997427367319744clip-1)"/><line x1="721.62" y1="29" x2="721.62" y2="530" style="stroke-width: 0.5;stroke: rgb(204,204,204);stroke-opacity: 1.0;stroke-linejoin: bevel;stroke-dasharray: 2.0, 2.0;shape-rendering:crispEdges;" transform="matrix(1,0,0,1,0,0)" clip-path="url(#8997427367319744clip-1)"/><line x1="756.81" y1="29" x2="756.81" y2="530" style="stroke-width: 0.5;stroke: rgb(204,204,204);stroke-opacity: 1.0;stroke-linejoin: bevel;stroke-dasharray: 2.0, 2.0;shape-rendering:crispEdges;" transform="matrix(1,0,0,1,0,0)" clip-path="url(#8997427367319744clip-1)"/><line x1="792" y1="29" x2="792" y2="530" style="stroke-width: 0.5;stroke: rgb(204,204,204);stroke-opacity: 1.0;stroke-linejoin: bevel;stroke-dasharray: 2.0, 2.0;shape-rendering:crispEdges;" transform="matrix(1,0,0,1,0,0)" clip-path="url(#8997427367319744clip-1)"/><line x1="53" y1="530" x2="792" y2="530" style="stroke-width: 0.5;stroke: rgb(204,204,204);stroke-opacity: 1.0;stroke-linejoin: bevel;stroke-dasharray: 2.0, 2.0;shape-rendering:crispEdges;" transform="matrix(1,0,0,1,0,0)" clip-path="url(#8997427367319744clip-1)"/><line x1="53" y1="491.46" x2="792" y2="491.46" style="stroke-width: 0.5;stroke: rgb(204,204,204);stroke-opacity: 1.0;stroke-linejoin: bevel;stroke-dasharray: 2.0, 2.0;shape-rendering:crispEdges;" transform="matrix(1,0,0,1,0,0)" clip-path="url(#8997427367319744clip-1)"/><line x1="53" y1="452.91" x2="792" y2="452.91" style="stroke-width: 0.5;stroke: rgb(204,204,204);stroke-opacity: 1.0;stroke-linejoin: bevel;stroke-dasharray: 2.0, 2.0;shape-rendering:crispEdges;" transform="matrix(1,0,0,1,0,0)" clip-path="url(#8997427367319744clip-1)"/><line x1="53" y1="414.37" x2="792" y2="414.37" style="stroke-width: 0.5;stroke: rgb(204,204,204);stroke-opacity: 1.0;stroke-linejoin: bevel;stroke-dasharray: 2.0, 2.0;shape-rendering:crispEdges;" transform="matrix(1,0,0,1,0,0)" clip-path="url(#8997427367319744clip-1)"/><line x1="53" y1="375.83" x2="792" y2="375.83" style="stroke-width: 0.5;stroke: rgb(204,204,204);stroke-opacity: 1.0;stroke-linejoin: bevel;stroke-dasharray: 2.0, 2.0;shape-rendering:crispEdges;" transform="matrix(1,0,0,1,0,0)" clip-path="url(#8997427367319744clip-1)"/><line x1="53" y1="337.28" x2="792" y2="337.28" style="stroke-width: 0.5;stroke: rgb(204,204,204);stroke-opacity: 1.0;stroke-linejoin: bevel;stroke-dasharray: 2.0, 2.0;shape-rendering:crispEdges;" transform="matrix(1,0,0,1,0,0)" clip-path="url(#8997427367319744clip-1)"/><line x1="53" y1="298.74" x2="792" y2="298.74" style="stroke-width: 0.5;stroke: rgb(204,204,204);stroke-opacity: 1.0;stroke-linejoin: bevel;stroke-dasharray: 2.0, 2.0;shape-rendering:crispEdges;" transform="matrix(1,0,0,1,0,0)" clip-path="url(#8997427367319744clip-1)"/><line x1="53" y1="260.2" x2="792" y2="260.2" style="stroke-width: 0.5;stroke: rgb(204,204,204);stroke-opacity: 1.0;stroke-linejoin: bevel;stroke-dasharray: 2.0, 2.0;shape-rendering:crispEdges;" transform="matrix(1,0,0,1,0,0)" clip-path="url(#8997427367319744clip-1)"/><line x1="53" y1="221.65" x2="792" y2="221.65" style="stroke-width: 0.5;stroke: rgb(204,204,204);stroke-opacity: 1.0;stroke-linejoin: bevel;stroke-dasharray: 2.0, 2.0;shape-rendering:crispEdges;" transform="matrix(1,0,0,1,0,0)" clip-path="url(#8997427367319744clip-1)"/><line x1="53" y1="183.11" x2="792" y2="183.11" style="stroke-width: 0.5;stroke: rgb(204,204,204);stroke-opacity: 1.0;stroke-linejoin: bevel;stroke-dasharray: 2.0, 2.0;shape-rendering:crispEdges;" transform="matrix(1,0,0,1,0,0)" clip-path="url(#8997427367319744clip-1)"/><line x1="53" y1="144.56" x2="792" y2="144.56" style="stroke-width: 0.5;stroke: rgb(204,204,204);stroke-opacity: 1.0;stroke-linejoin: bevel;stroke-dasharray: 2.0, 2.0;shape-rendering:crispEdges;" transform="matrix(1,0,0,1,0,0)" clip-path="url(#8997427367319744clip-1)"/><line x1="53" y1="106.02" x2="792" y2="106.02" style="stroke-width: 0.5;stroke: rgb(204,204,204);stroke-opacity: 1.0;stroke-linejoin: bevel;stroke-dasharray: 2.0, 2.0;shape-rendering:crispEdges;" transform="matrix(1,0,0,1,0,0)" clip-path="url(#8997427367319744clip-1)"/><line x1="53" y1="67.48" x2="792" y2="67.48" style="stroke-width: 0.5;stroke: rgb(204,204,204);stroke-opacity: 1.0;stroke-linejoin: bevel;stroke-dasharray: 2.0, 2.0;shape-rendering:crispEdges;" transform="matrix(1,0,0,1,0,0)" clip-path="url(#8997427367319744clip-1)"/><line x1="53" y1="529.98" x2="123.38" y2="523.84" style="stroke-width: 3.0;stroke: rgb(69,230,69);stroke-opacity: 0.8;stroke-linecap: square;shape-rendering:geometricPrecision;" transform="matrix(1,0,0,1,0,0)" clip-path="url(#8997427367319744clip-1)"/><line x1="123.38" y1="523.84" x2="193.76" y2="519.3" style="stroke-width: 3.0;stroke: rgb(69,230,69);stroke-opacity: 0.8;stroke-linecap: square;shape-rendering:geometricPrecision;" transform="matrix(1,0,0,1,0,0)" clip-path="url(#8997427367319744clip-1)"/><line x1="193.76" y1="519.3" x2="264.14" y2="514.68" style="stroke-width: 3.0;stroke: rgb(69,230,69);stroke-opacity: 0.8;stroke-linecap: square;shape-rendering:geometricPrecision;" transform="matrix(1,0,0,1,0,0)" clip-path="url(#8997427367319744clip-1)"/><line x1="264.14" y1="514.68" x2="334.52" y2="509.65" style="stroke-width: 3.0;stroke: rgb(69,230,69);stroke-opacity: 0.8;stroke-linecap: square;shape-rendering:geometricPrecision;" transform="matrix(1,0,0,1,0,0)" clip-path="url(#8997427367319744clip-1)"/><line x1="334.52" y1="509.65" x2="404.9" y2="505.9" style="stroke-width: 3.0;stroke: rgb(69,230,69);stroke-opacity: 0.8;stroke-linecap: square;shape-rendering:geometricPrecision;" transform="matrix(1,0,0,1,0,0)" clip-path="url(#8997427367319744clip-1)"/><line x1="404.9" y1="505.9" x2="475.29" y2="502.4" style="stroke-width: 3.0;stroke: rgb(69,230,69);stroke-opacity: 0.8;stroke-linecap: square;shape-rendering:geometricPrecision;" transform="matrix(1,0,0,1,0,0)" clip-path="url(#8997427367319744clip-1)"/><line x1="475.29" y1="502.4" x2="545.67" y2="498.26" style="stroke-width: 3.0;stroke: rgb(69,230,69);stroke-opacity: 0.8;stroke-linecap: square;shape-rendering:geometricPrecision;" transform="matrix(1,0,0,1,0,0)" clip-path="url(#8997427367319744clip-1)"/><line x1="545.67" y1="498.26" x2="616.05" y2="490.05" style="stroke-width: 3.0;stroke: rgb(69,230,69);stroke-opacity: 0.8;stroke-linecap: square;shape-rendering:geometricPrecision;" transform="matrix(1,0,0,1,0,0)" clip-path="url(#8997427367319744clip-1)"/><line x1="616.05" y1="490.05" x2="686.43" y2="486.73" style="stroke-width: 3.0;stroke: rgb(69,230,69);stroke-opacity: 0.8;stroke-linecap: square;shape-rendering:geometricPrecision;" transform="matrix(1,0,0,1,0,0)" clip-path="url(#8997427367319744clip-1)"/><line x1="686.43" y1="486.73" x2="756.81" y2="484.18" style="stroke-width: 3.0;stroke: rgb(69,230,69);stroke-opacity: 0.8;stroke-linecap: square;shape-rendering:geometricPrecision;" transform="matrix(1,0,0,1,0,0)" clip-path="url(#8997427367319744clip-1)"/><line x1="53" y1="529.99" x2="123.38" y2="518.66" style="stroke-width: 3.0;stroke: rgb(230,69,69);stroke-opacity: 0.8;stroke-linecap: square;shape-rendering:geometricPrecision;" transform="matrix(1,0,0,1,0,0)" clip-path="url(#8997427367319744clip-1)"/><line x1="123.38" y1="518.66" x2="193.76" y2="500.2" style="stroke-width: 3.0;stroke: rgb(230,69,69);stroke-opacity: 0.8;stroke-linecap: square;shape-rendering:geometricPrecision;" transform="matrix(1,0,0,1,0,0)" clip-path="url(#8997427367319744clip-1)"/><line x1="193.76" y1="500.2" x2="264.14" y2="477.13" style="stroke-width: 3.0;stroke: rgb(230,69,69);stroke-opacity: 0.8;stroke-linecap: square;shape-rendering:geometricPrecision;" transform="matrix(1,0,0,1,0,0)" clip-path="url(#8997427367319744clip-1)"/><line x1="264.14" y1="477.13" x2="334.52" y2="446.16" style="stroke-width: 3.0;stroke: rgb(230,69,69);stroke-opacity: 0.8;stroke-linecap: square;shape-rendering:geometricPrecision;" transform="matrix(1,0,0,1,0,0)" clip-path="url(#8997427367319744clip-1)"/><line x1="334.52" y1="446.16" x2="404.9" y2="403.24" style="stroke-width: 3.0;stroke: rgb(230,69,69);stroke-opacity: 0.8;stroke-linecap: square;shape-rendering:geometricPrecision;" transform="matrix(1,0,0,1,0,0)" clip-path="url(#8997427367319744clip-1)"/><line x1="404.9" y1="403.24" x2="475.29" y2="351.22" style="stroke-width: 3.0;stroke: rgb(230,69,69);stroke-opacity: 0.8;stroke-linecap: square;shape-rendering:geometricPrecision;" transform="matrix(1,0,0,1,0,0)" clip-path="url(#8997427367319744clip-1)"/><line x1="475.29" y1="351.22" x2="545.67" y2="300.85" style="stroke-width: 3.0;stroke: rgb(230,69,69);stroke-opacity: 0.8;stroke-linecap: square;shape-rendering:geometricPrecision;" transform="matrix(1,0,0,1,0,0)" clip-path="url(#8997427367319744clip-1)"/><line x1="545.67" y1="300.85" x2="616.05" y2="234.53" style="stroke-width: 3.0;stroke: rgb(230,69,69);stroke-opacity: 0.8;stroke-linecap: square;shape-rendering:geometricPrecision;" transform="matrix(1,0,0,1,0,0)" clip-path="url(#8997427367319744clip-1)"/><line x1="616.05" y1="234.53" x2="686.43" y2="145.17" style="stroke-width: 3.0;stroke: rgb(230,69,69);stroke-opacity: 0.8;stroke-linecap: square;shape-rendering:geometricPrecision;" transform="matrix(1,0,0,1,0,0)" clip-path="url(#8997427367319744clip-1)"/><line x1="686.43" y1="145.17" x2="756.81" y2="52.86" style="stroke-width: 3.0;stroke: rgb(230,69,69);stroke-opacity: 0.8;stroke-linecap: square;shape-rendering:geometricPrecision;" transform="matrix(1,0,0,1,0,0)" clip-path="url(#8997427367319744clip-1)"/></svg>
