<!DOCTYPE svg PUBLIC "-//W3C//DTD SVG 1.1//EN" "http://www.w3.org/Graphics/SVG/1.1/DTD/svg11.dtd">
<svg xmlns="http://www.w3.org/2000/svg" xmlns:xlink="http://www.w3.org/1999/xlink" xmlns:jfreesvg="http://www.jfree.org/jfreesvg/svg" width="800px" height="600px" text-rendering="auto" shape-rendering="auto">
<defs><clipPath id="8988731130795216clip-0"><path d="M 0 0 L 800 0 L 800 600 L 0 600 L 0 0 Z "/></clipPath>
<clipPath id="8988731130795216clip-1"><path d="M 53 29 L 53 530 L 792 530 L 792 29 Z "/></clipPath>
</defs>
<rect x="0" y="0" width="800" height="600" style="fill: rgb(255,255,255); fill-opacity: 1.0" transform="matrix(1,0,0,1,0,0)" clip-path="url(#8988731130795216clip-0)"/><g transform="matrix(1,0,0,1,0,0)"><text x="274.98" y="19.1" style="fill: rgb(0,0,0); fill-opacity: 1.0; font-family: sans-serif; font-size: 18px; font-weight: bold;" clip-path="url(#8988731130795216clip-0)">Compile Multiple Evaluations</text></g><rect x="300.31" y="577.91" width="199.38" height="21.09" style="fill: rgb(255,255,255); fill-opacity: 1.0" transform="matrix(1,0,0,1,0,0)" clip-path="url(#8988731130795216clip-0)"/><g style="stroke-width: 3.0;stroke: rgb(230,69,69);stroke-opacity: 0.8;stroke-linecap: square;shape-rendering:geometricPrecision;; fill: none" transform="matrix(1,0,0,1,0,0)" clip-path="url(#8988731130795216clip-0)"><path d="M 303.31 588.45 L 317.31 588.45"/></g><g transform="matrix(1,0,0,1,0,0)"><text x="321.31" y="592.97" style="fill: rgb(0,0,0); fill-opacity: 1.0; font-family: sans-serif; font-size: 12px;" clip-path="url(#8988731130795216clip-0)">Multi Eval</text></g><g style="stroke-width: 3.0;stroke: rgb(69,230,69);stroke-opacity: 0.8;stroke-linecap: square;shape-rendering:geometricPrecision;; fill: none" transform="matrix(1,0,0,1,0,0)" clip-path="url(#8988731130795216clip-0)"><path d="M 379.33 588.45 L 393.33 588.45"/></g><g transform="matrix(1,0,0,1,0,0)"><text x="397.33" y="592.97" style="fill: rgb(0,0,0); fill-opacity: 1.0; font-family: sans-serif; font-size: 12px;" clip-path="url(#8988731130795216clip-0)">Compile Multi Eval</text></g><rect x="53" y="29" width="739" height="501" style="fill: rgb(255,255,255); fill-opacity: 1.0" transform="matrix(1,0,0,1,0,0)" clip-path="url(#8988731130795216clip-0)"/><line x1="53" y1="530" x2="792" y2="530" style="stroke-width: 0.5;stroke: rgb(128,128,128);stroke-opacity: 1.0;stroke-linecap: square;shape-rendering:crispEdges;" transform="matrix(1,0,0,1,0,0)" clip-path="url(#8988731130795216clip-0)"/><g transform="matrix(1,0,0,1,0,0)"><text x="49.66" y="546.06" style="fill: rgb(51,51,51); fill-opacity: 1.0; font-family: sans-serif; font-size: 12px;" clip-path="url(#8988731130795216clip-0)">0</text></g><line x1="53" y1="532" x2="53" y2="530" style="stroke-width: 0.5;stroke: rgb(128,128,128);stroke-opacity: 1.0;stroke-linecap: square;shape-rendering:crispEdges;" transform="matrix(1,0,0,1,0,0)" clip-path="url(#8988731130795216clip-0)"/><g transform="matrix(1,0,0,1,0,0)"><text x="88.76" y="546.06" style="fill: rgb(51,51,51); fill-opacity: 1.0; font-family: sans-serif; font-size: 12px;" clip-path="url(#8988731130795216clip-0)">5</text></g><line x1="92.1" y1="532" x2="92.1" y2="530" style="stroke-width: 0.5;stroke: rgb(128,128,128);stroke-opacity: 1.0;stroke-linecap: square;shape-rendering:crispEdges;" transform="matrix(1,0,0,1,0,0)" clip-path="url(#8988731130795216clip-0)"/><g transform="matrix(1,0,0,1,0,0)"><text x="124.53" y="546.06" style="fill: rgb(51,51,51); fill-opacity: 1.0; font-family: sans-serif; font-size: 12px;" clip-path="url(#8988731130795216clip-0)">10</text></g><line x1="131.2" y1="532" x2="131.2" y2="530" style="stroke-width: 0.5;stroke: rgb(128,128,128);stroke-opacity: 1.0;stroke-linecap: square;shape-rendering:crispEdges;" transform="matrix(1,0,0,1,0,0)" clip-path="url(#8988731130795216clip-0)"/><g transform="matrix(1,0,0,1,0,0)"><text x="163.63" y="546.06" style="fill: rgb(51,51,51); fill-opacity: 1.0; font-family: sans-serif; font-size: 12px;" clip-path="url(#8988731130795216clip-0)">15</text></g><line x1="170.3" y1="532" x2="170.3" y2="530" style="stroke-width: 0.5;stroke: rgb(128,128,128);stroke-opacity: 1.0;stroke-linecap: square;shape-rendering:crispEdges;" transform="matrix(1,0,0,1,0,0)" clip-path="url(#8988731130795216clip-0)"/><g transform="matrix(1,0,0,1,0,0)"><text x="202.73" y="546.06" style="fill: rgb(51,51,51); fill-opacity: 1.0; font-family: sans-serif; font-size: 12px;" clip-path="url(#8988731130795216clip-0)">20</text></g><line x1="209.4" y1="532" x2="209.4" y2="530" style="stroke-width: 0.5;stroke: rgb(128,128,128);stroke-opacity: 1.0;stroke-linecap: square;shape-rendering:crispEdges;" transform="matrix(1,0,0,1,0,0)" clip-path="url(#8988731130795216clip-0)"/><g transform="matrix(1,0,0,1,0,0)"><text x="241.83" y="546.06" style="fill: rgb(51,51,51); fill-opacity: 1.0; font-family: sans-serif; font-size: 12px;" clip-path="url(#8988731130795216clip-0)">25</text></g><line x1="248.5" y1="532" x2="248.5" y2="530" style="stroke-width: 0.5;stroke: rgb(128,128,128);stroke-opacity: 1.0;stroke-linecap: square;shape-rendering:crispEdges;" transform="matrix(1,0,0,1,0,0)" clip-path="url(#8988731130795216clip-0)"/><g transform="matrix(1,0,0,1,0,0)"><text x="280.93" y="546.06" style="fill: rgb(51,51,51); fill-opacity: 1.0; font-family: sans-serif; font-size: 12px;" clip-path="url(#8988731130795216clip-0)">30</text></g><line x1="287.6" y1="532" x2="287.6" y2="530" style="stroke-width: 0.5;stroke: rgb(128,128,128);stroke-opacity: 1.0;stroke-linecap: square;shape-rendering:crispEdges;" transform="matrix(1,0,0,1,0,0)" clip-path="url(#8988731130795216clip-0)"/><g transform="matrix(1,0,0,1,0,0)"><text x="320.03" y="546.06" style="fill: rgb(51,51,51); fill-opacity: 1.0; font-family: sans-serif; font-size: 12px;" clip-path="url(#8988731130795216clip-0)">35</text></g><line x1="326.7" y1="532" x2="326.7" y2="530" style="stroke-width: 0.5;stroke: rgb(128,128,128);stroke-opacity: 1.0;stroke-linecap: square;shape-rendering:crispEdges;" transform="matrix(1,0,0,1,0,0)" clip-path="url(#8988731130795216clip-0)"/><g transform="matrix(1,0,0,1,0,0)"><text x="359.13" y="546.06" style="fill: rgb(51,51,51); fill-opacity: 1.0; font-family: sans-serif; font-size: 12px;" clip-path="url(#8988731130795216clip-0)">40</text></g><line x1="365.8" y1="532" x2="365.8" y2="530" style="stroke-width: 0.5;stroke: rgb(128,128,128);stroke-opacity: 1.0;stroke-linecap: square;shape-rendering:crispEdges;" transform="matrix(1,0,0,1,0,0)" clip-path="url(#8988731130795216clip-0)"/><g transform="matrix(1,0,0,1,0,0)"><text x="398.23" y="546.06" style="fill: rgb(51,51,51); fill-opacity: 1.0; font-family: sans-serif; font-size: 12px;" clip-path="url(#8988731130795216clip-0)">45</text></g><line x1="404.9" y1="532" x2="404.9" y2="530" style="stroke-width: 0.5;stroke: rgb(128,128,128);stroke-opacity: 1.0;stroke-linecap: square;shape-rendering:crispEdges;" transform="matrix(1,0,0,1,0,0)" clip-path="url(#8988731130795216clip-0)"/><g transform="matrix(1,0,0,1,0,0)"><text x="437.33" y="546.06" style="fill: rgb(51,51,51); fill-opacity: 1.0; font-family: sans-serif; font-size: 12px;" clip-path="url(#8988731130795216clip-0)">50</text></g><line x1="444.01" y1="532" x2="444.01" y2="530" style="stroke-width: 0.5;stroke: rgb(128,128,128);stroke-opacity: 1.0;stroke-linecap: square;shape-rendering:crispEdges;" transform="matrix(1,0,0,1,0,0)" clip-path="url(#8988731130795216clip-0)"/><g transform="matrix(1,0,0,1,0,0)"><text x="476.43" y="546.06" style="fill: rgb(51,51,51); fill-opacity: 1.0; font-family: sans-serif; font-size: 12px;" clip-path="url(#8988731130795216clip-0)">55</text></g><line x1="483.11" y1="532" x2="483.11" y2="530" style="stroke-width: 0.5;stroke: rgb(128,128,128);stroke-opacity: 1.0;stroke-linecap: square;shape-rendering:crispEdges;" transform="matrix(1,0,0,1,0,0)" clip-path="url(#8988731130795216clip-0)"/><g transform="matrix(1,0,0,1,0,0)"><text x="515.53" y="546.06" style="fill: rgb(51,51,51); fill-opacity: 1.0; font-family: sans-serif; font-size: 12px;" clip-path="url(#8988731130795216clip-0)">60</text></g><line x1="522.21" y1="532" x2="522.21" y2="530" style="stroke-width: 0.5;stroke: rgb(128,128,128);stroke-opacity: 1.0;stroke-linecap: square;shape-rendering:crispEdges;" transform="matrix(1,0,0,1,0,0)" clip-path="url(#8988731130795216clip-0)"/><g transform="matrix(1,0,0,1,0,0)"><text x="554.63" y="546.06" style="fill: rgb(51,51,51); fill-opacity: 1.0; font-family: sans-serif; font-size: 12px;" clip-path="url(#8988731130795216clip-0)">65</text></g><line x1="561.31" y1="532" x2="561.31" y2="530" style="stroke-width: 0.5;stroke: rgb(128,128,128);stroke-opacity: 1.0;stroke-linecap: square;shape-rendering:crispEdges;" transform="matrix(1,0,0,1,0,0)" clip-path="url(#8988731130795216clip-0)"/><g transform="matrix(1,0,0,1,0,0)"><text x="593.73" y="546.06" style="fill: rgb(51,51,51); fill-opacity: 1.0; font-family: sans-serif; font-size: 12px;" clip-path="url(#8988731130795216clip-0)">70</text></g><line x1="600.41" y1="532" x2="600.41" y2="530" style="stroke-width: 0.5;stroke: rgb(128,128,128);stroke-opacity: 1.0;stroke-linecap: square;shape-rendering:crispEdges;" transform="matrix(1,0,0,1,0,0)" clip-path="url(#8988731130795216clip-0)"/><g transform="matrix(1,0,0,1,0,0)"><text x="632.83" y="546.06" style="fill: rgb(51,51,51); fill-opacity: 1.0; font-family: sans-serif; font-size: 12px;" clip-path="url(#8988731130795216clip-0)">75</text></g><line x1="639.51" y1="532" x2="639.51" y2="530" style="stroke-width: 0.5;stroke: rgb(128,128,128);stroke-opacity: 1.0;stroke-linecap: square;shape-rendering:crispEdges;" transform="matrix(1,0,0,1,0,0)" clip-path="url(#8988731130795216clip-0)"/><g transform="matrix(1,0,0,1,0,0)"><text x="671.93" y="546.06" style="fill: rgb(51,51,51); fill-opacity: 1.0; font-family: sans-serif; font-size: 12px;" clip-path="url(#8988731130795216clip-0)">80</text></g><line x1="678.61" y1="532" x2="678.61" y2="530" style="stroke-width: 0.5;stroke: rgb(128,128,128);stroke-opacity: 1.0;stroke-linecap: square;shape-rendering:crispEdges;" transform="matrix(1,0,0,1,0,0)" clip-path="url(#8988731130795216clip-0)"/><g transform="matrix(1,0,0,1,0,0)"><text x="711.04" y="546.06" style="fill: rgb(51,51,51); fill-opacity: 1.0; font-family: sans-serif; font-size: 12px;" clip-path="url(#8988731130795216clip-0)">85</text></g><line x1="717.71" y1="532" x2="717.71" y2="530" style="stroke-width: 0.5;stroke: rgb(128,128,128);stroke-opacity: 1.0;stroke-linecap: square;shape-rendering:crispEdges;" transform="matrix(1,0,0,1,0,0)" clip-path="url(#8988731130795216clip-0)"/><g transform="matrix(1,0,0,1,0,0)"><text x="750.14" y="546.06" style="fill: rgb(51,51,51); fill-opacity: 1.0; font-family: sans-serif; font-size: 12px;" clip-path="url(#8988731130795216clip-0)">90</text></g><line x1="756.81" y1="532" x2="756.81" y2="530" style="stroke-width: 0.5;stroke: rgb(128,128,128);stroke-opacity: 1.0;stroke-linecap: square;shape-rendering:crispEdges;" transform="matrix(1,0,0,1,0,0)" clip-path="url(#8988731130795216clip-0)"/><g transform="matrix(1,0,0,1,0,0)"><text x="418.22" y="566.17" style="fill: rgb(51,51,51); fill-opacity: 1.0; font-family: sans-serif; font-size: 14px; font-weight: bold;" clip-path="url(#8988731130795216clip-0)">n</text></g><line x1="53" y1="29" x2="53" y2="530" style="stroke-width: 0.5;stroke: rgb(128,128,128);stroke-opacity: 1.0;stroke-linecap: square;shape-rendering:crispEdges;" transform="matrix(1,0,0,1,0,0)" clip-path="url(#8988731130795216clip-0)"/><g transform="matrix(1,0,0,1,0,0)"><text x="40.33" y="534.52" style="fill: rgb(51,51,51); fill-opacity: 1.0; font-family: sans-serif; font-size: 12px;" clip-path="url(#8988731130795216clip-0)">0</text></g><line x1="51" y1="530" x2="53" y2="530" style="stroke-width: 0.5;stroke: rgb(128,128,128);stroke-opacity: 1.0;stroke-linecap: square;shape-rendering:crispEdges;" transform="matrix(1,0,0,1,0,0)" clip-path="url(#8988731130795216clip-0)"/><g transform="matrix(1,0,0,1,0,0)"><text x="16.97" y="503.02" style="fill: rgb(51,51,51); fill-opacity: 1.0; font-family: sans-serif; font-size: 12px;" clip-path="url(#8988731130795216clip-0)">5,000</text></g><line x1="51" y1="498.5" x2="53" y2="498.5" style="stroke-width: 0.5;stroke: rgb(128,128,128);stroke-opacity: 1.0;stroke-linecap: square;shape-rendering:crispEdges;" transform="matrix(1,0,0,1,0,0)" clip-path="url(#8988731130795216clip-0)"/><g transform="matrix(1,0,0,1,0,0)"><text x="10.3" y="471.53" style="fill: rgb(51,51,51); fill-opacity: 1.0; font-family: sans-serif; font-size: 12px;" clip-path="url(#8988731130795216clip-0)">10,000</text></g><line x1="51" y1="467.01" x2="53" y2="467.01" style="stroke-width: 0.5;stroke: rgb(128,128,128);stroke-opacity: 1.0;stroke-linecap: square;shape-rendering:crispEdges;" transform="matrix(1,0,0,1,0,0)" clip-path="url(#8988731130795216clip-0)"/><g transform="matrix(1,0,0,1,0,0)"><text x="10.3" y="440.03" style="fill: rgb(51,51,51); fill-opacity: 1.0; font-family: sans-serif; font-size: 12px;" clip-path="url(#8988731130795216clip-0)">15,000</text></g><line x1="51" y1="435.51" x2="53" y2="435.51" style="stroke-width: 0.5;stroke: rgb(128,128,128);stroke-opacity: 1.0;stroke-linecap: square;shape-rendering:crispEdges;" transform="matrix(1,0,0,1,0,0)" clip-path="url(#8988731130795216clip-0)"/><g transform="matrix(1,0,0,1,0,0)"><text x="10.3" y="408.54" style="fill: rgb(51,51,51); fill-opacity: 1.0; font-family: sans-serif; font-size: 12px;" clip-path="url(#8988731130795216clip-0)">20,000</text></g><line x1="51" y1="404.02" x2="53" y2="404.02" style="stroke-width: 0.5;stroke: rgb(128,128,128);stroke-opacity: 1.0;stroke-linecap: square;shape-rendering:crispEdges;" transform="matrix(1,0,0,1,0,0)" clip-path="url(#8988731130795216clip-0)"/><g transform="matrix(1,0,0,1,0,0)"><text x="10.3" y="377.04" style="fill: rgb(51,51,51); fill-opacity: 1.0; font-family: sans-serif; font-size: 12px;" clip-path="url(#8988731130795216clip-0)">25,000</text></g><line x1="51" y1="372.52" x2="53" y2="372.52" style="stroke-width: 0.5;stroke: rgb(128,128,128);stroke-opacity: 1.0;stroke-linecap: square;shape-rendering:crispEdges;" transform="matrix(1,0,0,1,0,0)" clip-path="url(#8988731130795216clip-0)"/><g transform="matrix(1,0,0,1,0,0)"><text x="10.3" y="345.55" style="fill: rgb(51,51,51); fill-opacity: 1.0; font-family: sans-serif; font-size: 12px;" clip-path="url(#8988731130795216clip-0)">30,000</text></g><line x1="51" y1="341.03" x2="53" y2="341.03" style="stroke-width: 0.5;stroke: rgb(128,128,128);stroke-opacity: 1.0;stroke-linecap: square;shape-rendering:crispEdges;" transform="matrix(1,0,0,1,0,0)" clip-path="url(#8988731130795216clip-0)"/><g transform="matrix(1,0,0,1,0,0)"><text x="10.3" y="314.05" style="fill: rgb(51,51,51); fill-opacity: 1.0; font-family: sans-serif; font-size: 12px;" clip-path="url(#8988731130795216clip-0)">35,000</text></g><line x1="51" y1="309.53" x2="53" y2="309.53" style="stroke-width: 0.5;stroke: rgb(128,128,128);stroke-opacity: 1.0;stroke-linecap: square;shape-rendering:crispEdges;" transform="matrix(1,0,0,1,0,0)" clip-path="url(#8988731130795216clip-0)"/><g transform="matrix(1,0,0,1,0,0)"><text x="10.3" y="282.55" style="fill: rgb(51,51,51); fill-opacity: 1.0; font-family: sans-serif; font-size: 12px;" clip-path="url(#8988731130795216clip-0)">40,000</text></g><line x1="51" y1="278.04" x2="53" y2="278.04" style="stroke-width: 0.5;stroke: rgb(128,128,128);stroke-opacity: 1.0;stroke-linecap: square;shape-rendering:crispEdges;" transform="matrix(1,0,0,1,0,0)" clip-path="url(#8988731130795216clip-0)"/><g transform="matrix(1,0,0,1,0,0)"><text x="10.3" y="251.06" style="fill: rgb(51,51,51); fill-opacity: 1.0; font-family: sans-serif; font-size: 12px;" clip-path="url(#8988731130795216clip-0)">45,000</text></g><line x1="51" y1="246.54" x2="53" y2="246.54" style="stroke-width: 0.5;stroke: rgb(128,128,128);stroke-opacity: 1.0;stroke-linecap: square;shape-rendering:crispEdges;" transform="matrix(1,0,0,1,0,0)" clip-path="url(#8988731130795216clip-0)"/><g transform="matrix(1,0,0,1,0,0)"><text x="10.3" y="219.56" style="fill: rgb(51,51,51); fill-opacity: 1.0; font-family: sans-serif; font-size: 12px;" clip-path="url(#8988731130795216clip-0)">50,000</text></g><line x1="51" y1="215.05" x2="53" y2="215.05" style="stroke-width: 0.5;stroke: rgb(128,128,128);stroke-opacity: 1.0;stroke-linecap: square;shape-rendering:crispEdges;" transform="matrix(1,0,0,1,0,0)" clip-path="url(#8988731130795216clip-0)"/><g transform="matrix(1,0,0,1,0,0)"><text x="10.3" y="188.07" style="fill: rgb(51,51,51); fill-opacity: 1.0; font-family: sans-serif; font-size: 12px;" clip-path="url(#8988731130795216clip-0)">55,000</text></g><line x1="51" y1="183.55" x2="53" y2="183.55" style="stroke-width: 0.5;stroke: rgb(128,128,128);stroke-opacity: 1.0;stroke-linecap: square;shape-rendering:crispEdges;" transform="matrix(1,0,0,1,0,0)" clip-path="url(#8988731130795216clip-0)"/><g transform="matrix(1,0,0,1,0,0)"><text x="10.3" y="156.57" style="fill: rgb(51,51,51); fill-opacity: 1.0; font-family: sans-serif; font-size: 12px;" clip-path="url(#8988731130795216clip-0)">60,000</text></g><line x1="51" y1="152.06" x2="53" y2="152.06" style="stroke-width: 0.5;stroke: rgb(128,128,128);stroke-opacity: 1.0;stroke-linecap: square;shape-rendering:crispEdges;" transform="matrix(1,0,0,1,0,0)" clip-path="url(#8988731130795216clip-0)"/><g transform="matrix(1,0,0,1,0,0)"><text x="10.3" y="125.08" style="fill: rgb(51,51,51); fill-opacity: 1.0; font-family: sans-serif; font-size: 12px;" clip-path="url(#8988731130795216clip-0)">65,000</text></g><line x1="51" y1="120.56" x2="53" y2="120.56" style="stroke-width: 0.5;stroke: rgb(128,128,128);stroke-opacity: 1.0;stroke-linecap: square;shape-rendering:crispEdges;" transform="matrix(1,0,0,1,0,0)" clip-path="url(#8988731130795216clip-0)"/><g transform="matrix(1,0,0,1,0,0)"><text x="10.3" y="93.58" style="fill: rgb(51,51,51); fill-opacity: 1.0; font-family: sans-serif; font-size: 12px;" clip-path="url(#8988731130795216clip-0)">70,000</text></g><line x1="51" y1="89.06" x2="53" y2="89.06" style="stroke-width: 0.5;stroke: rgb(128,128,128);stroke-opacity: 1.0;stroke-linecap: square;shape-rendering:crispEdges;" transform="matrix(1,0,0,1,0,0)" clip-path="url(#8988731130795216clip-0)"/><g transform="matrix(1,0,0,1,0,0)"><text x="10.3" y="62.09" style="fill: rgb(51,51,51); fill-opacity: 1.0; font-family: sans-serif; font-size: 12px;" clip-path="url(#8988731130795216clip-0)">75,000</text></g><line x1="51" y1="57.57" x2="53" y2="57.57" style="stroke-width: 0.5;stroke: rgb(128,128,128);stroke-opacity: 1.0;stroke-linecap: square;shape-rendering:crispEdges;" transform="matrix(1,0,0,1,0,0)" clip-path="url(#8988731130795216clip-0)"/><line x1="53" y1="29" x2="53" y2="530" style="stroke-width: 0.5;stroke: rgb(204,204,204);stroke-opacity: 1.0;stroke-linejoin: bevel;stroke-dasharray: 2.0, 2.0;shape-rendering:crispEdges;" transform="matrix(1,0,0,1,0,0)" clip-path="url(#8988731130795216clip-1)"/><line x1="92.1" y1="29" x2="92.1" y2="530" style="stroke-width: 0.5;stroke: rgb(204,204,204);stroke-opacity: 1.0;stroke-linejoin: bevel;stroke-dasharray: 2.0, 2.0;shape-rendering:crispEdges;" transform="matrix(1,0,0,1,0,0)" clip-path="url(#8988731130795216clip-1)"/><line x1="131.2" y1="29" x2="131.2" y2="530" style="stroke-width: 0.5;stroke: rgb(204,204,204);stroke-opacity: 1.0;stroke-linejoin: bevel;stroke-dasharray: 2.0, 2.0;shape-rendering:crispEdges;" transform="matrix(1,0,0,1,0,0)" clip-path="url(#8988731130795216clip-1)"/><line x1="170.3" y1="29" x2="170.3" y2="530" style="stroke-width: 0.5;stroke: rgb(204,204,204);stroke-opacity: 1.0;stroke-linejoin: bevel;stroke-dasharray: 2.0, 2.0;shape-rendering:crispEdges;" transform="matrix(1,0,0,1,0,0)" clip-path="url(#8988731130795216clip-1)"/><line x1="209.4" y1="29" x2="209.4" y2="530" style="stroke-width: 0.5;stroke: rgb(204,204,204);stroke-opacity: 1.0;stroke-linejoin: bevel;stroke-dasharray: 2.0, 2.0;shape-rendering:crispEdges;" transform="matrix(1,0,0,1,0,0)" clip-path="url(#8988731130795216clip-1)"/><line x1="248.5" y1="29" x2="248.5" y2="530" style="stroke-width: 0.5;stroke: rgb(204,204,204);stroke-opacity: 1.0;stroke-linejoin: bevel;stroke-dasharray: 2.0, 2.0;shape-rendering:crispEdges;" transform="matrix(1,0,0,1,0,0)" clip-path="url(#8988731130795216clip-1)"/><line x1="287.6" y1="29" x2="287.6" y2="530" style="stroke-width: 0.5;stroke: rgb(204,204,204);stroke-opacity: 1.0;stroke-linejoin: bevel;stroke-dasharray: 2.0, 2.0;shape-rendering:crispEdges;" transform="matrix(1,0,0,1,0,0)" clip-path="url(#8988731130795216clip-1)"/><line x1="326.7" y1="29" x2="326.7" y2="530" style="stroke-width: 0.5;stroke: rgb(204,204,204);stroke-opacity: 1.0;stroke-linejoin: bevel;stroke-dasharray: 2.0, 2.0;shape-rendering:crispEdges;" transform="matrix(1,0,0,1,0,0)" clip-path="url(#8988731130795216clip-1)"/><line x1="365.8" y1="29" x2="365.8" y2="530" style="stroke-width: 0.5;stroke: rgb(204,204,204);stroke-opacity: 1.0;stroke-linejoin: bevel;stroke-dasharray: 2.0, 2.0;shape-rendering:crispEdges;" transform="matrix(1,0,0,1,0,0)" clip-path="url(#8988731130795216clip-1)"/><line x1="404.9" y1="29" x2="404.9" y2="530" style="stroke-width: 0.5;stroke: rgb(204,204,204);stroke-opacity: 1.0;stroke-linejoin: bevel;stroke-dasharray: 2.0, 2.0;shape-rendering:crispEdges;" transform="matrix(1,0,0,1,0,0)" clip-path="url(#8988731130795216clip-1)"/><line x1="444.01" y1="29" x2="444.01" y2="530" style="stroke-width: 0.5;stroke: rgb(204,204,204);stroke-opacity: 1.0;stroke-linejoin: bevel;stroke-dasharray: 2.0, 2.0;shape-rendering:crispEdges;" transform="matrix(1,0,0,1,0,0)" clip-path="url(#8988731130795216clip-1)"/><line x1="483.11" y1="29" x2="483.11" y2="530" style="stroke-width: 0.5;stroke: rgb(204,204,204);stroke-opacity: 1.0;stroke-linejoin: bevel;stroke-dasharray: 2.0, 2.0;shape-rendering:crispEdges;" transform="matrix(1,0,0,1,0,0)" clip-path="url(#8988731130795216clip-1)"/><line x1="522.21" y1="29" x2="522.21" y2="530" style="stroke-width: 0.5;stroke: rgb(204,204,204);stroke-opacity: 1.0;stroke-linejoin: bevel;stroke-dasharray: 2.0, 2.0;shape-rendering:crispEdges;" transform="matrix(1,0,0,1,0,0)" clip-path="url(#8988731130795216clip-1)"/><line x1="561.31" y1="29" x2="561.31" y2="530" style="stroke-width: 0.5;stroke: rgb(204,204,204);stroke-opacity: 1.0;stroke-linejoin: bevel;stroke-dasharray: 2.0, 2.0;shape-rendering:crispEdges;" transform="matrix(1,0,0,1,0,0)" clip-path="url(#8988731130795216clip-1)"/><line x1="600.41" y1="29" x2="600.41" y2="530" style="stroke-width: 0.5;stroke: rgb(204,204,204);stroke-opacity: 1.0;stroke-linejoin: bevel;stroke-dasharray: 2.0, 2.0;shape-rendering:crispEdges;" transform="matrix(1,0,0,1,0,0)" clip-path="url(#8988731130795216clip-1)"/><line x1="639.51" y1="29" x2="639.51" y2="530" style="stroke-width: 0.5;stroke: rgb(204,204,204);stroke-opacity: 1.0;stroke-linejoin: bevel;stroke-dasharray: 2.0, 2.0;shape-rendering:crispEdges;" transform="matrix(1,0,0,1,0,0)" clip-path="url(#8988731130795216clip-1)"/><line x1="678.61" y1="29" x2="678.61" y2="530" style="stroke-width: 0.5;stroke: rgb(204,204,204);stroke-opacity: 1.0;stroke-linejoin: bevel;stroke-dasharray: 2.0, 2.0;shape-rendering:crispEdges;" transform="matrix(1,0,0,1,0,0)" clip-path="url(#8988731130795216clip-1)"/><line x1="717.71" y1="29" x2="717.71" y2="530" style="stroke-width: 0.5;stroke: rgb(204,204,204);stroke-opacity: 1.0;stroke-linejoin: bevel;stroke-dasharray: 2.0, 2.0;shape-rendering:crispEdges;" transform="matrix(1,0,0,1,0,0)" clip-path="url(#8988731130795216clip-1)"/><line x1="756.81" y1="29" x2="756.81" y2="530" style="stroke-width: 0.5;stroke: rgb(204,204,204);stroke-opacity: 1.0;stroke-linejoin: bevel;stroke-dasharray: 2.0, 2.0;shape-rendering:crispEdges;" transform="matrix(1,0,0,1,0,0)" clip-path="url(#8988731130795216clip-1)"/><line x1="53" y1="530" x2="792" y2="530" style="stroke-width: 0.5;stroke: rgb(204,204,204);stroke-opacity: 1.0;stroke-linejoin: bevel;stroke-dasharray: 2.0, 2.0;shape-rendering:crispEdges;" transform="matrix(1,0,0,1,0,0)" clip-path="url(#8988731130795216clip-1)"/><line x1="53" y1="498.5" x2="792" y2="498.5" style="stroke-width: 0.5;stroke: rgb(204,204,204);stroke-opacity: 1.0;stroke-linejoin: bevel;stroke-dasharray: 2.0, 2.0;shape-rendering:crispEdges;" transform="matrix(1,0,0,1,0,0)" clip-path="url(#8988731130795216clip-1)"/><line x1="53" y1="467.01" x2="792" y2="467.01" style="stroke-width: 0.5;stroke: rgb(204,204,204);stroke-opacity: 1.0;stroke-linejoin: bevel;stroke-dasharray: 2.0, 2.0;shape-rendering:crispEdges;" transform="matrix(1,0,0,1,0,0)" clip-path="url(#8988731130795216clip-1)"/><line x1="53" y1="435.51" x2="792" y2="435.51" style="stroke-width: 0.5;stroke: rgb(204,204,204);stroke-opacity: 1.0;stroke-linejoin: bevel;stroke-dasharray: 2.0, 2.0;shape-rendering:crispEdges;" transform="matrix(1,0,0,1,0,0)" clip-path="url(#8988731130795216clip-1)"/><line x1="53" y1="404.02" x2="792" y2="404.02" style="stroke-width: 0.5;stroke: rgb(204,204,204);stroke-opacity: 1.0;stroke-linejoin: bevel;stroke-dasharray: 2.0, 2.0;shape-rendering:crispEdges;" transform="matrix(1,0,0,1,0,0)" clip-path="url(#8988731130795216clip-1)"/><line x1="53" y1="372.52" x2="792" y2="372.52" style="stroke-width: 0.5;stroke: rgb(204,204,204);stroke-opacity: 1.0;stroke-linejoin: bevel;stroke-dasharray: 2.0, 2.0;shape-rendering:crispEdges;" transform="matrix(1,0,0,1,0,0)" clip-path="url(#8988731130795216clip-1)"/><line x1="53" y1="341.03" x2="792" y2="341.03" style="stroke-width: 0.5;stroke: rgb(204,204,204);stroke-opacity: 1.0;stroke-linejoin: bevel;stroke-dasharray: 2.0, 2.0;shape-rendering:crispEdges;" transform="matrix(1,0,0,1,0,0)" clip-path="url(#8988731130795216clip-1)"/><line x1="53" y1="309.53" x2="792" y2="309.53" style="stroke-width: 0.5;stroke: rgb(204,204,204);stroke-opacity: 1.0;stroke-linejoin: bevel;stroke-dasharray: 2.0, 2.0;shape-rendering:crispEdges;" transform="matrix(1,0,0,1,0,0)" clip-path="url(#8988731130795216clip-1)"/><line x1="53" y1="278.04" x2="792" y2="278.04" style="stroke-width: 0.5;stroke: rgb(204,204,204);stroke-opacity: 1.0;stroke-linejoin: bevel;stroke-dasharray: 2.0, 2.0;shape-rendering:crispEdges;" transform="matrix(1,0,0,1,0,0)" clip-path="url(#8988731130795216clip-1)"/><line x1="53" y1="246.54" x2="792" y2="246.54" style="stroke-width: 0.5;stroke: rgb(204,204,204);stroke-opacity: 1.0;stroke-linejoin: bevel;stroke-dasharray: 2.0, 2.0;shape-rendering:crispEdges;" transform="matrix(1,0,0,1,0,0)" clip-path="url(#8988731130795216clip-1)"/><line x1="53" y1="215.05" x2="792" y2="215.05" style="stroke-width: 0.5;stroke: rgb(204,204,204);stroke-opacity: 1.0;stroke-linejoin: bevel;stroke-dasharray: 2.0, 2.0;shape-rendering:crispEdges;" transform="matrix(1,0,0,1,0,0)" clip-path="url(#8988731130795216clip-1)"/><line x1="53" y1="183.55" x2="792" y2="183.55" style="stroke-width: 0.5;stroke: rgb(204,204,204);stroke-opacity: 1.0;stroke-linejoin: bevel;stroke-dasharray: 2.0, 2.0;shape-rendering:crispEdges;" transform="matrix(1,0,0,1,0,0)" clip-path="url(#8988731130795216clip-1)"/><line x1="53" y1="152.06" x2="792" y2="152.06" style="stroke-width: 0.5;stroke: rgb(204,204,204);stroke-opacity: 1.0;stroke-linejoin: bevel;stroke-dasharray: 2.0, 2.0;shape-rendering:crispEdges;" transform="matrix(1,0,0,1,0,0)" clip-path="url(#8988731130795216clip-1)"/><line x1="53" y1="120.56" x2="792" y2="120.56" style="stroke-width: 0.5;stroke: rgb(204,204,204);stroke-opacity: 1.0;stroke-linejoin: bevel;stroke-dasharray: 2.0, 2.0;shape-rendering:crispEdges;" transform="matrix(1,0,0,1,0,0)" clip-path="url(#8988731130795216clip-1)"/><line x1="53" y1="89.06" x2="792" y2="89.06" style="stroke-width: 0.5;stroke: rgb(204,204,204);stroke-opacity: 1.0;stroke-linejoin: bevel;stroke-dasharray: 2.0, 2.0;shape-rendering:crispEdges;" transform="matrix(1,0,0,1,0,0)" clip-path="url(#8988731130795216clip-1)"/><line x1="53" y1="57.57" x2="792" y2="57.57" style="stroke-width: 0.5;stroke: rgb(204,204,204);stroke-opacity: 1.0;stroke-linejoin: bevel;stroke-dasharray: 2.0, 2.0;shape-rendering:crispEdges;" transform="matrix(1,0,0,1,0,0)" clip-path="url(#8988731130795216clip-1)"/><line x1="53" y1="528.31" x2="131.2" y2="523.48" style="stroke-width: 3.0;stroke: rgb(69,230,69);stroke-opacity: 0.8;stroke-linecap: square;shape-rendering:geometricPrecision;" transform="matrix(1,0,0,1,0,0)" clip-path="url(#8988731130795216clip-1)"/><line x1="131.2" y1="523.48" x2="209.4" y2="518.56" style="stroke-width: 3.0;stroke: rgb(69,230,69);stroke-opacity: 0.8;stroke-linecap: square;shape-rendering:geometricPrecision;" transform="matrix(1,0,0,1,0,0)" clip-path="url(#8988731130795216clip-1)"/><line x1="209.4" y1="518.56" x2="287.6" y2="515.72" style="stroke-width: 3.0;stroke: rgb(69,230,69);stroke-opacity: 0.8;stroke-linecap: square;shape-rendering:geometricPrecision;" transform="matrix(1,0,0,1,0,0)" clip-path="url(#8988731130795216clip-1)"/><line x1="287.6" y1="515.72" x2="365.8" y2="512.16" style="stroke-width: 3.0;stroke: rgb(69,230,69);stroke-opacity: 0.8;stroke-linecap: square;shape-rendering:geometricPrecision;" transform="matrix(1,0,0,1,0,0)" clip-path="url(#8988731130795216clip-1)"/><line x1="365.8" y1="512.16" x2="444.01" y2="507.62" style="stroke-width: 3.0;stroke: rgb(69,230,69);stroke-opacity: 0.8;stroke-linecap: square;shape-rendering:geometricPrecision;" transform="matrix(1,0,0,1,0,0)" clip-path="url(#8988731130795216clip-1)"/><line x1="444.01" y1="507.62" x2="522.21" y2="498.31" style="stroke-width: 3.0;stroke: rgb(69,230,69);stroke-opacity: 0.8;stroke-linecap: square;shape-rendering:geometricPrecision;" transform="matrix(1,0,0,1,0,0)" clip-path="url(#8988731130795216clip-1)"/><line x1="522.21" y1="498.31" x2="600.41" y2="502.41" style="stroke-width: 3.0;stroke: rgb(69,230,69);stroke-opacity: 0.8;stroke-linecap: square;shape-rendering:geometricPrecision;" transform="matrix(1,0,0,1,0,0)" clip-path="url(#8988731130795216clip-1)"/><line x1="600.41" y1="502.41" x2="678.61" y2="498.53" style="stroke-width: 3.0;stroke: rgb(69,230,69);stroke-opacity: 0.8;stroke-linecap: square;shape-rendering:geometricPrecision;" transform="matrix(1,0,0,1,0,0)" clip-path="url(#8988731130795216clip-1)"/><line x1="678.61" y1="498.53" x2="756.81" y2="494.74" style="stroke-width: 3.0;stroke: rgb(69,230,69);stroke-opacity: 0.8;stroke-linecap: square;shape-rendering:geometricPrecision;" transform="matrix(1,0,0,1,0,0)" clip-path="url(#8988731130795216clip-1)"/><line x1="53" y1="529.99" x2="131.2" y2="503.64" style="stroke-width: 3.0;stroke: rgb(230,69,69);stroke-opacity: 0.8;stroke-linecap: square;shape-rendering:geometricPrecision;" transform="matrix(1,0,0,1,0,0)" clip-path="url(#8988731130795216clip-1)"/><line x1="131.2" y1="503.64" x2="209.4" y2="470.48" style="stroke-width: 3.0;stroke: rgb(230,69,69);stroke-opacity: 0.8;stroke-linecap: square;shape-rendering:geometricPrecision;" transform="matrix(1,0,0,1,0,0)" clip-path="url(#8988731130795216clip-1)"/><line x1="209.4" y1="470.48" x2="287.6" y2="435.28" style="stroke-width: 3.0;stroke: rgb(230,69,69);stroke-opacity: 0.8;stroke-linecap: square;shape-rendering:geometricPrecision;" transform="matrix(1,0,0,1,0,0)" clip-path="url(#8988731130795216clip-1)"/><line x1="287.6" y1="435.28" x2="365.8" y2="394.14" style="stroke-width: 3.0;stroke: rgb(230,69,69);stroke-opacity: 0.8;stroke-linecap: square;shape-rendering:geometricPrecision;" transform="matrix(1,0,0,1,0,0)" clip-path="url(#8988731130795216clip-1)"/><line x1="365.8" y1="394.14" x2="444.01" y2="344.59" style="stroke-width: 3.0;stroke: rgb(230,69,69);stroke-opacity: 0.8;stroke-linecap: square;shape-rendering:geometricPrecision;" transform="matrix(1,0,0,1,0,0)" clip-path="url(#8988731130795216clip-1)"/><line x1="444.01" y1="344.59" x2="522.21" y2="285.86" style="stroke-width: 3.0;stroke: rgb(230,69,69);stroke-opacity: 0.8;stroke-linecap: square;shape-rendering:geometricPrecision;" transform="matrix(1,0,0,1,0,0)" clip-path="url(#8988731130795216clip-1)"/><line x1="522.21" y1="285.86" x2="600.41" y2="215.09" style="stroke-width: 3.0;stroke: rgb(230,69,69);stroke-opacity: 0.8;stroke-linecap: square;shape-rendering:geometricPrecision;" transform="matrix(1,0,0,1,0,0)" clip-path="url(#8988731130795216clip-1)"/><line x1="600.41" y1="215.09" x2="678.61" y2="118.28" style="stroke-width: 3.0;stroke: rgb(230,69,69);stroke-opacity: 0.8;stroke-linecap: square;shape-rendering:geometricPrecision;" transform="matrix(1,0,0,1,0,0)" clip-path="url(#8988731130795216clip-1)"/><line x1="678.61" y1="118.28" x2="756.81" y2="52.86" style="stroke-width: 3.0;stroke: rgb(230,69,69);stroke-opacity: 0.8;stroke-linecap: square;shape-rendering:geometricPrecision;" transform="matrix(1,0,0,1,0,0)" clip-path="url(#8988731130795216clip-1)"/></svg>
